<svg xmlns="http://www.w3.org/2000/svg" width="1920" height="1080" viewBox="0 0 1920 1080">
  <!-- Background gradient -->
  <defs>
    <linearGradient id="bg-gradient" x1="0%" y1="0%" x2="100%" y2="100%">
      <stop offset="0%" style="stop-color:#000000;stop-opacity:1" />
      <stop offset="100%" style="stop-color:#111111;stop-opacity:1" />
    </linearGradient>
    
    <!-- Particle effect -->
    <filter id="noise" x="0%" y="0%" width="100%" height="100%">
      <feTurbulence type="fractalNoise" baseFrequency="0.01" numOctaves="3" seed="1" />
      <feDisplacementMap in="SourceGraphic" scale="10" />
    </filter>
  </defs>
  
  <!-- Main background -->
  <rect width="1920" height="1080" fill="url(#bg-gradient)" />
  
  <!-- Grid pattern -->
  <g opacity="0.1">
    <path d="M0,100 L1920,100" stroke="#00c8ff" stroke-width="0.5" />
    <path d="M0,200 L1920,200" stroke="#00c8ff" stroke-width="0.5" />
    <path d="M0,300 L1920,300" stroke="#00c8ff" stroke-width="0.5" />
    <path d="M0,400 L1920,400" stroke="#00c8ff" stroke-width="0.5" />
    <path d="M0,500 L1920,500" stroke="#00c8ff" stroke-width="0.5" />
    <path d="M0,600 L1920,600" stroke="#00c8ff" stroke-width="0.5" />
    <path d="M0,700 L1920,700" stroke="#00c8ff" stroke-width="0.5" />
    <path d="M0,800 L1920,800" stroke="#00c8ff" stroke-width="0.5" />
    <path d="M0,900 L1920,900" stroke="#00c8ff" stroke-width="0.5" />
    <path d="M0,1000 L1920,1000" stroke="#00c8ff" stroke-width="0.5" />
    
    <path d="M100,0 L100,1080" stroke="#00c8ff" stroke-width="0.5" />
    <path d="M200,0 L200,1080" stroke="#00c8ff" stroke-width="0.5" />
    <path d="M300,0 L300,1080" stroke="#00c8ff" stroke-width="0.5" />
    <path d="M400,0 L400,1080" stroke="#00c8ff" stroke-width="0.5" />
    <path d="M500,0 L500,1080" stroke="#00c8ff" stroke-width="0.5" />
    <path d="M600,0 L600,1080" stroke="#00c8ff" stroke-width="0.5" />
    <path d="M700,0 L700,1080" stroke="#00c8ff" stroke-width="0.5" />
    <path d="M800,0 L800,1080" stroke="#00c8ff" stroke-width="0.5" />
    <path d="M900,0 L900,1080" stroke="#00c8ff" stroke-width="0.5" />
    <path d="M1000,0 L1000,1080" stroke="#00c8ff" stroke-width="0.5" />
    <path d="M1100,0 L1100,1080" stroke="#00c8ff" stroke-width="0.5" />
    <path d="M1200,0 L1200,1080" stroke="#00c8ff" stroke-width="0.5" />
    <path d="M1300,0 L1300,1080" stroke="#00c8ff" stroke-width="0.5" />
    <path d="M1400,0 L1400,1080" stroke="#00c8ff" stroke-width="0.5" />
    <path d="M1500,0 L1500,1080" stroke="#00c8ff" stroke-width="0.5" />
    <path d="M1600,0 L1600,1080" stroke="#00c8ff" stroke-width="0.5" />
    <path d="M1700,0 L1700,1080" stroke="#00c8ff" stroke-width="0.5" />
    <path d="M1800,0 L1800,1080" stroke="#00c8ff" stroke-width="0.5" />
  </g>
  
  <!-- Glowing circles -->
  <circle cx="400" cy="300" r="100" fill="#00c8ff" opacity="0.05" filter="url(#noise)" />
  <circle cx="1500" cy="800" r="150" fill="#00c8ff" opacity="0.05" filter="url(#noise)" />
  <circle cx="960" cy="540" r="200" fill="#00c8ff" opacity="0.03" filter="url(#noise)" />
  
  <!-- Abstract lines -->
  <g opacity="0.2">
    <path d="M0,1080 L1920,0" stroke="#00c8ff" stroke-width="1" />
    <path d="M0,0 L1920,1080" stroke="#00c8ff" stroke-width="1" />
  </g>
  
  <!-- Particles -->
  <g opacity="0.3">
    <circle cx="200" cy="200" r="2" fill="#ffffff" />
    <circle cx="400" cy="500" r="2" fill="#ffffff" />
    <circle cx="600" cy="300" r="2" fill="#ffffff" />
    <circle cx="800" cy="700" r="2" fill="#ffffff" />
    <circle cx="1000" cy="400" r="2" fill="#ffffff" />
    <circle cx="1200" cy="600" r="2" fill="#ffffff" />
    <circle cx="1400" cy="200" r="2" fill="#ffffff" />
    <circle cx="1600" cy="800" r="2" fill="#ffffff" />
    <circle cx="1800" cy="500" r="2" fill="#ffffff" />
    <circle cx="300" cy="800" r="2" fill="#ffffff" />
    <circle cx="500" cy="100" r="2" fill="#ffffff" />
    <circle cx="700" cy="900" r="2" fill="#ffffff" />
    <circle cx="900" cy="300" r="2" fill="#ffffff" />
    <circle cx="1100" cy="700" r="2" fill="#ffffff" />
    <circle cx="1300" cy="400" r="2" fill="#ffffff" />
    <circle cx="1500" cy="600" r="2" fill="#ffffff" />
    <circle cx="1700" cy="200" r="2" fill="#ffffff" />
    <circle cx="250" cy="350" r="2" fill="#ffffff" />
    <circle cx="450" cy="650" r="2" fill="#ffffff" />
    <circle cx="650" cy="150" r="2" fill="#ffffff" />
    <circle cx="850" cy="850" r="2" fill="#ffffff" />
    <circle cx="1050" cy="250" r="2" fill="#ffffff" />
    <circle cx="1250" cy="750" r="2" fill="#ffffff" />
    <circle cx="1450" cy="350" r="2" fill="#ffffff" />
    <circle cx="1650" cy="650" r="2" fill="#ffffff" />
  </g>
</svg>